<svg width="100" height="100" viewBox="0 0 100 100" fill="none" xmlns="http://www.w3.org/2000/svg">
<path fill-rule="evenodd" clip-rule="evenodd" d="M68.6142 41.4754C70.7682 42.3874 73.2399 41.2534 73.8864 38.9639C74.8483 35.5576 75.5236 32.3529 75.912 29.3496C76.4809 25.1193 76.5365 21.3725 76.0789 18.109C75.6328 14.817 74.7156 12.0764 73.3273 9.88702C71.9388 7.69768 70.115 6.12474 67.8554 5.1682C64.314 3.66906 60.4214 4.10657 56.1772 6.48072C51.9331 8.85489 47.6363 13.0586 43.2869 19.0919C38.949 25.0968 34.8698 32.8127 31.0491 42.2396C27.2399 51.6381 24.7794 60.0392 23.6673 67.443C22.5553 74.8468 22.6785 80.9217 24.037 85.6676C25.3954 90.4135 27.8585 93.5417 31.4262 95.052C33.8443 96.0756 36.3561 96.2381 38.9614 95.5392C41.5783 94.8118 44.1866 93.3802 46.7861 91.244C49.3973 89.0795 51.8975 86.3675 54.2867 83.1079C55.898 80.9256 57.4105 78.5663 58.824 76.03C59.9745 73.9654 59.0344 71.3796 56.8968 70.4458C54.9547 69.5972 52.7251 70.4358 51.5845 72.2525C50.8941 73.352 50.185 74.3537 49.457 75.2576C48.0676 77.0051 46.6665 78.3805 45.2535 79.384C43.8538 80.3931 42.4745 81.027 41.1156 81.2859C39.7815 81.522 38.5066 81.3826 37.291 80.868C35.0975 79.9395 33.6159 77.9609 32.8463 74.9325C32.1015 71.881 32.1636 67.8699 33.0326 62.8991C33.9264 57.9055 35.7296 52.0622 38.4422 45.3694C41.1086 38.7905 43.8475 33.4267 46.6589 29.2782C49.482 25.1012 52.2247 22.1916 54.8874 20.5493C57.5615 18.8786 60.0019 18.5102 62.2087 19.4444C63.4507 19.9703 64.4569 20.83 65.2271 22.0236C66.022 23.1943 66.5538 24.6706 66.8223 26.4527C67.0908 28.2346 67.0937 30.2712 66.8308 32.5623C66.6971 33.7651 66.4789 35.031 66.176 36.3601C65.6992 38.4522 66.6723 40.6534 68.6142 41.4754ZM65.911 50.7251C63.6244 49.7571 61.0029 50.8668 60.0557 53.2038C59.1085 55.5407 60.1945 58.2199 62.481 59.188L62.7004 59.2808C64.9871 60.2489 67.6086 59.1391 68.5557 56.8021C69.5029 54.4651 68.417 51.7859 66.1304 50.818L65.911 50.7251Z" fill="#121212"/>
</svg>
